<svg xmlns="http://www.w3.org/2000/svg" xmlns:xlink="http://www.w3.org/1999/xlink" xml:space="preserve" width="145.373mm" height="198.592mm" version="1.1" style="shape-rendering:geometricPrecision; text-rendering:geometricPrecision; image-rendering:optimizeQuality; fill-rule:evenodd; clip-rule:evenodd" viewBox="0 0 14537 19859">
 <defs>
  <style type="text/css">
   <![CDATA[
    .str0 {stroke:black;stroke-width:7.62}
    .fil3 {fill:none}
    .fil2 {fill:#1F5183}
    .fil1 {fill:#7894AA}
    .fil0 {fill:#A75903}
   ]]>
  </style>
 </defs>
 <g id="Layer_x0020_1">
  <metadata id="CorelCorpID_0Corel-Layer"/>
  <g id="_402406840">
   
   <path class="fil1" d="M1692 15022c-94,-21 -70,45 -36,-90 -75,102 -42,13 -39,167l75 -77z"/>
   <path class="fil2" d="M2391 14425c51,23 71,89 44,149 -27,60 -89,90 -140,68 -51,-23 -71,-89 -44,-149 27,-60 89,-90 140,-68zm713 -1631c-65,22 -214,127 -229,158 -15,-11 -180,-163 -665,-153 -485,11 -697,109 -746,169 -49,60 -136,44 -82,-22 54,-65 327,-327 855,-316 528,11 724,114 866,163zm-3004 888l-4 -238c0,0 141,-133 229,-201 89,-68 310,-209 443,-213 133,-4 157,64 185,117 28,52 50,159 57,197 32,-4 73,-33 102,-58 29,-25 172,-163 313,-163 197,0 199,97 217,176 56,-14 90,-45 133,-86 90,-85 236,-213 350,-219 141,-8 201,113 201,238 0,125 -97,427 -193,793 -84,318 -213,529 -209,849 -56,0 -276,143 -292,183 2,-74 266,-1027 332,-1261 70,-250 149,-455 145,-527 -4,-72 -36,-81 -89,-72 -52,8 -165,105 -266,201 -101,97 -141,76 -145,185 -4,109 -48,483 -109,668 -60,185 -149,382 -270,515 -121,133 -205,189 -274,185 -68,-4 -117,-89 -109,-250 8,-161 32,-278 145,-495 113,-217 254,-370 314,-435 60,-64 72,-125 76,-278 4,-153 -28,-165 -81,-161 -52,4 -101,28 -201,117 -101,89 -141,93 -165,238 -24,145 -141,443 -221,648 -81,205 -234,431 -378,556 -145,125 -149,113 -209,113 -60,0 -125,-60 -129,-234 -4,-173 72,-415 209,-588 137,-173 326,-370 407,-435 81,-64 97,-133 101,-326 4,-193 -4,-205 -72,-209 -68,-4 -161,24 -234,101 -72,76 -225,205 -310,370zm1187 350c14,128 -27,288 -91,471 -64,183 -148,311 -185,283 -37,-28 -29,-121 52,-341 81,-220 154,-314 224,-413zm-710 -124c-38,196 -103,373 -169,558 -65,185 -204,450 -248,396 -44,-55 -35,-172 57,-423 93,-251 207,-357 360,-531zm12621 65c-79,0 -179,72 -245,150 -65,79 -140,148 -140,297 0,148 118,214 319,17 95,-93 151,-209 182,-271 -43,-52 -85,-120 -116,-194zm183 67c20,-45 33,-123 16,-167 -17,-43 -55,-86 -83,-72 -28,13 -22,76 -7,126 15,50 43,84 75,113zm-2127 35c98,-76 249,-150 325,-148 76,2 116,10 128,47 12,37 32,57 54,57 22,0 89,-62 172,-121 84,-59 239,-153 433,-192 194,-39 347,-44 347,-17 0,27 -36,61 -89,109 -53,48 -135,59 -369,118 -235,59 -478,189 -478,221 0,32 24,55 82,54 58,-1 97,59 124,138 27,79 26,187 72,191 46,4 135,-33 341,-154 206,-120 336,-224 415,-300 142,-137 249,-165 370,-174 -22,-119 25,-223 92,-229 110,-10 236,121 235,251 0,111 -46,187 -84,261 60,31 112,167 113,241 11,410 -1317,1100 -1761,1298 192,30 915,220 1107,289 192,69 873,304 1129,451 256,148 535,357 525,508 -10,152 -362,354 -618,340 -255,-14 -629,-58 -925,-134 -295,-76 -392,-173 -367,-218 25,-44 166,13 280,52 115,38 590,133 875,109 285,-25 439,-138 431,-255 -7,-117 -385,-335 -922,-532 -505,-186 -1200,-444 -1741,-444 -123,0 -220,21 -532,156 -312,135 -676,301 -1119,418 -443,117 -713,206 -878,221 -165,15 -222,-34 -63,-58 160,-25 589,-160 818,-238 51,-18 1109,-371 1370,-559 -285,-65 -1010,-156 -1441,-199 -431,-43 -980,-73 -1379,-76 -399,-2 -509,-37 -965,-37 -455,0 -2177,98 -3003,278 -826,180 -1445,444 -1466,661 -21,217 243,312 513,333 270,21 445,85 217,85 -228,0 -476,-21 -619,-106 -143,-85 -233,-191 -228,-307 26,-573 1766,-898 2302,-968 974,-127 2127,-143 2963,-132 836,11 2138,95 2524,153 386,58 693,164 915,159 222,-5 890,-348 1180,-534 378,-244 869,-535 713,-881 -69,99 -168,220 -273,310 -106,90 -179,105 -232,108 -225,10 -272,-119 -260,-307 -127,76 -471,337 -571,332 -101,-5 -138,-101 -169,-164 -32,-63 -64,-169 -116,-169 -53,0 -106,148 -191,233 -85,85 -180,175 -291,191 -111,16 -111,-79 -111,-127 0,-48 32,-122 143,-243 111,-122 302,-222 291,-259 -11,-37 -16,-85 -111,-69 -95,16 -164,58 -238,122 -74,64 -164,95 -153,42 11,-53 58,-111 164,-180zm-7303 -71c54,-150 50,-218 182,-404 132,-186 268,-341 322,-282 55,59 -55,195 -173,332 -118,136 -173,223 -332,354zm1521 500c9,-127 82,-254 145,-345 64,-91 200,-227 218,-145 18,82 -59,173 -127,263 -68,91 -77,95 -236,227zm1167 -359c54,-150 168,-372 300,-559 132,-186 341,-386 395,-327 55,59 -150,341 -277,486 -127,145 -259,268 -418,400zm400 75c19,15 19,46 0,70 -19,24 -49,31 -68,16 -19,-15 -19,-46 0,-70 19,-24 49,-31 68,-16zm1500 -599c20,-46 40,-64 59,-88 19,-24 90,-65 103,-39 13,25 -38,65 -61,84 -24,19 -65,39 -100,43zm-5361 -73c-18,-59 -90,-130 -100,-138 12,-20 73,-127 251,-273 178,-146 362,-187 457,-165 95,22 126,65 136,138 9,73 -18,251 -223,460 -205,210 -451,565 -515,675 -64,109 -173,324 -160,369 14,46 0,64 59,64 59,0 178,-73 342,-210 164,-137 255,-187 292,-333 36,-146 91,-333 210,-529 119,-196 360,-460 483,-456 123,5 169,23 173,119 5,96 -18,264 -255,511 -237,246 -337,328 -429,406 -91,78 -114,191 -114,337 0,146 -9,196 78,187 87,-9 337,-178 451,-255 114,-78 119,-59 164,-233 46,-173 255,-661 342,-811 87,-150 119,-164 228,-164 109,0 114,14 68,82 -46,68 -173,205 -337,606 -164,401 -191,492 -191,634 0,141 50,205 228,201 178,-5 333,-61 415,-88 -9,-191 244,-534 342,-641 96,-105 328,-228 419,-146 91,82 -114,360 -205,461 -91,100 -294,290 -358,335 29,43 144,143 294,75 215,-98 431,-196 617,-344 16,-52 31,-112 58,-203 59,-196 201,-447 369,-666 169,-219 597,-597 734,-465 137,132 -246,620 -333,716 -87,96 -541,503 -614,590 -9,59 -50,336 76,359 88,16 296,-166 359,-306 -98,3 -164,-51 -158,-145 6,-94 114,-191 183,-202 76,-12 155,66 122,231 140,-23 370,-89 502,-280 132,-191 221,-303 221,-389 0,-87 -44,-150 88,-82 132,68 181,76 261,75 80,-1 105,-18 196,-105 91,-87 178,-169 287,-169 109,0 134,34 133,101 -1,67 -105,222 -238,277 -132,55 -196,14 -251,100 -55,87 -220,420 -223,538 -4,118 64,166 135,171 124,8 380,-75 462,-133 32,-137 205,-489 337,-589 132,-100 244,-91 294,-51 107,85 -1,257 -105,382 -87,105 -197,173 -253,212 -105,73 -132,78 -137,146 -5,68 62,132 144,109 82,-23 193,-146 289,-137 96,9 105,50 -18,100 -123,50 -201,146 -328,123 -128,-23 -213,-122 -227,-182 -55,44 -271,144 -463,125 -183,-18 -300,-106 -286,-265 14,-160 115,-354 183,-464 68,-109 36,-104 -69,-108 -105,-5 -109,-27 -169,68 -59,96 -226,309 -433,415 -207,105 -294,104 -368,110 -16,43 -101,205 -220,318 -91,87 -136,114 -253,122 -187,13 -273,-253 -278,-315 -55,46 -300,170 -445,243 -146,73 -237,91 -360,91 -123,0 -237,-77 -278,-100 -49,8 -267,96 -494,88 -212,-8 -330,-127 -332,-333 -173,36 -381,263 -628,277 -155,9 -201,-91 -205,-228 -5,-137 1,-130 -81,-61 -82,68 -275,289 -471,289 -196,0 -219,-105 -228,-196 -9,-91 96,-360 274,-552 178,-191 506,-570 597,-707 91,-137 119,-238 78,-261 -41,-23 -139,-23 -226,24 -87,46 -213,137 -372,420zm5741 751c13,-72 80,-187 140,-265 60,-78 149,-150 193,-121 44,29 -74,142 -131,202 -58,60 -130,130 -201,183zm782 51c0,0 10,-111 2,-130 49,-22 84,-34 236,-165 153,-130 271,-244 273,-256 71,5 123,10 160,10 -10,62 -54,140 -113,258 -59,118 -81,170 -111,234 111,0 312,-2 347,-34 34,-32 71,-108 123,-194 52,-86 148,-207 148,-207l204 39c0,0 -150,177 -239,335 -89,157 -133,283 -123,315 10,32 44,27 59,-10 34,2 79,5 108,5 -9,69 -177,201 -276,197 -125,-5 -76,-254 -52,-325 0,0 -69,-10 -160,-10 -91,0 -165,7 -239,54 -108,89 -278,281 -303,308 -50,13 -234,-9 -311,11 67,-46 343,-281 385,-318 148,-128 212,-349 212,-349 -107,79 -172,156 -332,234zm585 -7260c25,-109 73,-222 58,-342 -21,-178 -222,-295 -267,-505 -28,-192 37,-108 138,-74 123,41 234,88 363,47 120,-38 178,-112 238,-190 32,-41 40,-97 107,-54 343,763 -123,1224 -247,1475 -84,170 -119,436 -239,397 -54,-26 -93,-164 -139,-325 -3,-10 -6,-20 -8,-29 -43,-114 -32,-281 -4,-400zm-117 -77c-27,40 -217,38 -358,7 -290,-63 -195,0 -451,132 -120,117 -160,-30 -226,11 -36,137 22,229 140,246 119,17 505,-78 500,34l3 358c205,26 127,-109 232,-61 170,467 -282,165 -513,252 -234,88 -202,126 -444,128 -271,2 -74,-111 -296,-120 -48,1 -53,75 -87,142 -38,75 -62,154 -36,179 164,118 233,-90 635,-44 234,23 572,122 751,48 53,-18 58,28 55,39 -34,129 -73,151 -165,221 -63,48 -381,53 -517,-15 -50,-25 -109,39 -117,63 -27,94 -24,373 31,384 147,61 445,-59 538,97 205,341 -151,566 -431,630 -422,97 -661,28 -1059,-25 -1031,-137 -1112,-108 -1767,-650 -156,-112 -239,-234 -366,-434 -74,-117 -385,-509 -253,-574l121 -60 319 -138c51,-29 44,-66 -12,-144 -13,-20 -57,-78 -75,-102 -128,-175 -270,-493 -367,-689 -157,-316 -291,-641 -398,-977 -84,-263 -179,-305 -50,-498 215,-322 279,-741 287,-1140 7,-366 -14,-318 -113,-563 215,-218 303,-426 233,-838 -91,-541 -262,-526 -407,-639 -147,-67 -570,-118 -914,-97 -191,61 -234,191 -358,346 -127,158 -236,247 -341,400 -338,492 -247,531 -201,1179 35,494 79,841 32,1331 -64,664 -89,746 97,879 59,42 216,110 255,187 132,218 205,483 357,639l414 427c46,45 -31,52 -22,184 8,119 76,289 150,452 21,41 232,8 215,52 -47,470 -224,768 -403,1245 -17,41 -107,26 -233,-8 -87,-24 -159,-43 -255,-56 -206,-27 -525,1 -586,11 -61,7 -263,398 -178,398 153,17 431,-116 1013,-72 394,30 1491,336 1867,472 694,251 404,173 556,295 73,59 111,21 183,114 -173,-36 -1081,-366 -1399,-425l-1166 -202c-213,-43 -304,-61 -361,62 -26,113 113,74 253,77 509,-7 2738,678 2928,893l-2190 128c-89,58 -85,47 -211,51l-7 -137c-387,109 -1116,291 -1130,321 -19,38 55,300 82,300 597,8 1213,-113 1867,-89 364,13 1407,59 1800,106 29,3 33,46 13,56l-1439 31c-324,15 -1618,61 -2053,148 -57,11 -115,10 -123,36 4,51 172,63 357,43l1269 -117c308,-16 642,-14 952,-10 187,2 263,43 459,35 156,-6 303,-6 459,-3 634,8 1162,-27 1771,67 691,107 935,19 1484,362 160,100 859,373 1011,384 66,11 237,8 356,-6 70,-8 123,-24 114,-45 -72,-116 -85,-59 -253,-75 -258,-34 -931,-326 -1123,-469 -136,-102 -291,-132 -471,-202 -262,-101 -1454,-792 -1623,-953 -15,-14 -20,-79 19,-155 54,-105 92,-100 142,-82 112,83 388,263 511,308 601,220 1084,278 1334,209 329,-135 -15,277 20,395 41,31 97,93 124,92 43,0 33,-141 80,-307 39,-138 138,-280 239,-421 13,-30 52,-46 39,-90 -10,-21 -127,-41 -165,-37 -250,54 -631,199 -1142,107 -350,-63 -833,-247 -1059,-429 -17,-25 1,-156 17,-200 23,-69 42,-165 77,-180 536,-96 1140,-243 1301,-777 160,-530 388,-952 547,-1533 64,-234 51,-343 143,-571 92,-229 102,-309 157,-555 8,-86 102,91 230,-7 139,-168 339,-199 340,-530 2,-67 -149,-11 -164,-74 -107,-624 409,-339 550,-1181 35,-148 -4,-577 -99,-712l-374 -508c-213,-251 -262,-109 -230,-629 25,-403 -74,-396 -180,-686 -122,-333 153,-447 -36,-743 -154,-270 -296,-452 -502,-682 -1017,-933 -1007,-417 -1508,-768 -888,-620 -1790,-27 -2613,283 -269,102 -505,245 -762,367 -334,158 -1145,32 -1152,972 -1,154 -22,142 110,192 205,28 662,34 792,156 199,-7 307,81 532,52 147,-19 928,-310 1417,-313 1388,-7 1588,496 1930,312 325,-176 142,-431 742,-121 175,90 534,416 621,542 361,520 130,1279 261,2063 -1,17 -20,34 -38,27 -221,-81 -191,-213 -487,-75 -203,123 -337,12 -532,27 -26,2 -81,4 -94,27 -271,415 -227,730 -51,1197 28,75 3,18 33,76 98,185 98,318 234,541 170,279 130,299 41,417zm-6047 -562c1,0 38,-86 163,56 56,64 89,160 122,240 61,18 25,2 89,81 47,57 60,72 96,119 78,99 96,149 242,180 54,-7 45,8 30,-44 -194,-92 -312,-359 -387,-577 -14,-98 148,-21 175,16 106,150 -65,324 293,353 55,4 177,-44 214,19 32,124 5,170 92,162 295,-119 -84,-426 -22,-510 56,-42 357,176 366,240l219 1185c22,284 404,878 458,975 141,468 854,1058 1110,1442 28,34 -49,25 -84,11 -733,-289 -1603,-619 -2317,-763 -127,-39 73,-387 114,-524 116,-233 190,-608 226,-923 24,-100 339,-2 337,-62 -50,-226 -252,-574 -285,-572 -89,-32 -267,135 -352,19 -20,-27 -11,-105 -117,-165 -252,-154 -449,-386 -596,-636 -72,-123 -91,-275 -185,-325zm3965 4975l52 64c-40,11 -35,18 -73,14 -108,-12 -78,-16 -95,-21 -282,-13 -165,-75 -393,-112 -480,-78 -972,-40 -1421,-77l1178 -62c333,0 106,-37 274,-97 124,87 327,245 478,291zm2525 -6006l-130 -53 -166 -13c-29,-6 -97,-1 -76,-51 19,-47 50,-33 80,-33 154,-20 156,-42 351,114 23,19 71,72 -60,36zm-38 462c5,57 -16,64 -65,99 -237,80 -277,13 -418,-98l75 -12 408 11zm-49 -89c-24,6 -162,49 -110,-29 72,-79 68,-81 64,-193 -27,-94 14,-69 38,-58 42,100 60,-2 100,104 15,45 -72,56 -71,106 -3,23 21,55 -21,69zm-2298 -22c-16,-20 40,-73 56,-132 17,-65 -18,-128 37,-133 44,-4 113,62 135,181 9,47 -76,17 -113,35 -58,28 -94,74 -114,49zm-232 -49c-25,1 -49,-32 -22,-52 21,-15 88,-13 110,-28 47,-29 37,-97 81,-87 48,82 -19,172 -169,166zm-528 -911c32,19 -35,42 -80,107 -134,192 -415,580 -451,769 -9,31 362,120 369,82 34,-104 75,-281 144,-360 148,-166 205,-232 657,-190 150,22 98,94 27,80 -352,-10 -552,78 -663,314 -28,59 5,87 72,107 43,9 74,-74 100,-68 157,36 -4,87 203,155 99,33 184,11 268,14 48,2 148,3 136,43 -14,49 -432,94 -524,19 -40,-33 -49,-96 -120,-92 -48,0 -54,35 -1,91 185,236 587,194 861,152 96,-15 34,110 71,123 156,52 350,-347 496,-423 165,-85 477,-769 259,-1022 -228,-309 -501,-116 -1188,-223 -343,-54 -584,-126 -725,129 -15,22 -40,89 -120,149 -51,38 -105,59 -105,107 0,44 26,43 93,41 121,-2 175,-137 219,-106zm-4110 5790c58,-69 122,-151 213,-245 108,-111 241,-234 198,-287 -146,-48 -212,122 -310,223 -57,58 -166,163 -210,228 -51,27 -84,13 -20,-78 30,-42 35,-57 53,-90 83,-149 115,-164 150,-199 33,-37 91,-124 16,-176 -64,-31 -279,288 -357,427 -216,345 -420,694 -636,1038 -33,48 -81,139 -45,154 63,20 238,-58 281,-135 57,-60 101,-156 146,-217l521 -644zm-1182 756c68,25 88,-31 270,-292l479 -650c58,-71 311,-318 173,-340 -154,-25 -285,253 -503,575l-376 508c-55,70 -102,135 -43,200zm-219 -345c115,20 189,-130 304,-272 47,-58 81,-96 136,-146 92,-85 170,-161 133,-193 -131,-110 -216,35 -345,192 -85,103 -326,362 -228,419zm6015 469c17,6 -13,9 95,21 38,4 33,-3 73,-14l-52 -64c-39,78 79,62 -116,57zm1873 -2370l-21 -59 -66 -16 87 75zm-851 -3296l101 -84 -101 84zm1320 -129c-31,0 -41,22 -41,41 0,19 29,30 60,30 31,0 45,-35 45,-54 0,-19 -34,-16 -65,-16z"/>
   <path class="fil3 str0" d="M11556 14321c-61,35 -121,73 -186,152 -65,79 -106,150 -79,166 27,15 69,-25 135,-96 66,-72 104,-148 131,-221z"/>
  </g>
 </g>
</svg>
